<?xml version="1.0" encoding="UTF-8" standalone="no"?>
<!-- Created with Inkscape (http://www.inkscape.org/) -->

<svg
   width="15.808975mm"
   height="38.09087mm"
   viewBox="0 0 15.808975 38.09087"
   version="1.1"
   id="svg1"
   xmlns:inkscape="http://www.inkscape.org/namespaces/inkscape"
   xmlns:sodipodi="http://sodipodi.sourceforge.net/DTD/sodipodi-0.dtd"
   xmlns="http://www.w3.org/2000/svg"
   xmlns:svg="http://www.w3.org/2000/svg">
  <sodipodi:namedview
     id="namedview1"
     pagecolor="#ffffff"
     bordercolor="#000000"
     borderopacity="0.25"
     inkscape:showpageshadow="2"
     inkscape:pageopacity="0.0"
     inkscape:pagecheckerboard="0"
     inkscape:deskcolor="#d1d1d1"
     inkscape:document-units="mm" />
  <defs
     id="defs1" />
  <g
     inkscape:label="Layer 1"
     inkscape:groupmode="layer"
     id="layer1"
     transform="translate(-97.095515,-98.44589)">
    <path
       id="path6"
       style="fill:#ffffff;fill-opacity:1;stroke:none;stroke-width:0.132157;-inkscape-stroke:none"
       d="m 104.97362,98.445889 c -10.323201,0.58693 -10.571481,18.641251 -0.32867,19.677891 -1.33268,1.49402 -1.32339,3.79362 -0.24085,5.42491 0.86064,1.60223 1.23788,3.53319 0.56314,5.27203 -0.62328,2.02957 -1.18136,4.28583 -0.22791,6.3118 0.0549,0.55636 0.60849,2.0693 0.85878,1.07198 -0.39549,-1.56599 -1.19353,-3.1269 -0.73252,-4.77938 0.32557,-2.06317 1.49691,-4.11213 0.74795,-6.22985 -0.38822,-1.72411 -1.92548,-3.24438 -1.38509,-5.11527 0.43198,-0.79129 0.55737,-2.16673 1.39893,-1.96043 4.93953,-0.59354 7.64815,-6.07089 7.23603,-10.63371 -0.1992,-4.26543 -3.21378,-9.015841 -7.88979,-9.039971 z" />
  </g>
</svg>
