<?xml version="1.0" encoding="UTF-8" standalone="no"?>
<!-- Created with Inkscape (http://www.inkscape.org/) -->

<svg
   width="59.210938"
   height="91.292969"
   viewBox="0 0 59.210938 91.292969"
   version="1.1"
   id="svg1"
   inkscape:version="1.3.2 (091e20ef0f, 2023-11-25, custom)"
   sodipodi:docname="build_icon.svg"
   xmlns:inkscape="http://www.inkscape.org/namespaces/inkscape"
   xmlns:sodipodi="http://sodipodi.sourceforge.net/DTD/sodipodi-0.dtd"
   xmlns="http://www.w3.org/2000/svg"
   xmlns:svg="http://www.w3.org/2000/svg">
  <sodipodi:namedview
     id="namedview1"
     pagecolor="#ffffff"
     bordercolor="#000000"
     borderopacity="0.25"
     inkscape:showpageshadow="2"
     inkscape:pageopacity="0.0"
     inkscape:pagecheckerboard="0"
     inkscape:deskcolor="#d1d1d1"
     inkscape:document-units="px"
     inkscape:zoom="9.5537983"
     inkscape:cx="91.48194"
     inkscape:cy="52.701552"
     inkscape:window-width="1366"
     inkscape:window-height="745"
     inkscape:window-x="0"
     inkscape:window-y="0"
     inkscape:window-maximized="1"
     inkscape:current-layer="layer1" />
  <defs
     id="defs1" />
  <path
     id="path1"
     style="stroke-width:3;stroke-linecap:round"
     d="M 29.605469,-3.75e-7 A 29.605263,29.605263 0 0 0 -2.5e-7,29.605469 H 4.9101567 a 0.4535,0.4535 0 0 0 -0.01758,0.08008 c 1.218013,6.682103 7.3494712,13.986861 13.1464852,19.691407 4.913272,4.834902 9.181978,8.158152 10.447265,9.121093 -1.379193,0.389819 -2.46889,1.479301 -2.857421,2.859375 h -4.53125 c -3.577994,0 -6.458985,2.880998 -6.458985,6.458985 v 17.017579 c 0,3.57797 2.880991,6.45898 6.458985,6.45898 H 38.11328 c 3.577988,0 6.458988,-2.88101 6.458988,-6.45898 V 67.816407 c 0,-3.577987 -2.881,-6.458985 -6.458988,-6.458985 h -4.53125 c -0.327931,-1.16482 -1.157057,-2.121752 -2.236328,-2.626953 1.290172,-0.983024 5.795538,-4.493458 10.734376,-9.353515 5.79701,-5.704546 11.92847,-13.009305 13.14648,-19.691407 a 0.4535,0.4535 0 0 0 0.002,-0.08008 h 3.98242 A 29.605263,29.605263 0 0 0 29.605469,-3.75e-7 Z M 5.8046877,29.605469 h 6.9316403 c 0.213407,0.744596 0.86082,2.708553 2.587891,6.255859 2.086906,4.286389 6.064634,11.261189 12.457031,20.91211 C 25.805805,55.218679 22.674788,52.66761 18.673828,48.730469 12.95209,43.099997 6.9827937,35.84789 5.8046877,29.605469 Z m 7.8789063,0 h 6.923828 c -0.307673,1.619369 -0.05213,3.796606 0.476563,6.304688 0.658331,3.123078 1.778067,6.719783 2.978515,10.134765 1.573628,4.476587 2.367002,6.13958 3.361328,8.478516 C 21.82567,45.938423 18.064565,39.41651 16.140625,35.464844 14.552921,32.203788 13.927601,30.410992 13.683594,29.605469 Z m 7.861328,0 h 15.869141 c 0.348938,1.342066 0.183034,3.652102 -0.384766,6.345703 -0.644447,3.057211 -1.754417,6.626168 -2.947266,10.019532 -2.121708,6.035749 -4.03585,10.305317 -4.537109,11.443359 -0.434516,-0.983675 -2.463235,-5.514671 -4.626953,-11.669922 -1.192848,-3.393364 -2.300865,-6.96232 -2.945312,-10.019531 -0.538301,-2.553663 -0.708138,-4.752641 -0.427735,-6.119141 z m 16.802735,0 h 7.179692 c -0.24401,0.805523 -0.86933,2.598319 -2.45704,5.859375 -1.96467,4.035347 -5.788765,10.685043 -11.605465,19.564453 0.977128,-2.289957 1.847154,-4.133651 3.472656,-8.757812 1.200448,-3.414984 2.320185,-7.009735 2.978516,-10.132813 0.55354,-2.625958 0.810914,-4.893813 0.431641,-6.533203 z m 8.126952,0 h 7.83984 c -1.17813,6.242421 -7.14935,13.494528 -12.87109,19.125 -5.526742,5.438587 -10.543316,9.197837 -10.937499,9.492188 7.08113,-10.558109 11.176359,-17.833415 13.380859,-22.361329 1.72707,-3.547306 2.37449,-5.511263 2.58789,-6.255859 z M 29.75,59.261719 c 1.318386,0.05982 2.390385,0.913164 2.820313,2.095703 h -5.929688 c 0.387534,-1.065935 1.294808,-1.868289 2.435547,-2.060547 A 0.4535,0.4535 0 0 0 29.208985,59.435547 0.4535,0.4535 0 0 0 29.75,59.261719 Z m 4.6875,3.628906 h 1.808594 c 0.392655,0 0.708984,0.316331 0.708984,0.708985 v 1.80664 c 0,0.392655 -0.316329,0.708985 -0.708984,0.708985 H 34.4375 c -0.392653,0 -0.708984,-0.31633 -0.708984,-0.708985 v -1.80664 c 0,-0.368114 0.278452,-0.668909 0.636719,-0.705078 0.02387,-0.0025 0.04772,-0.0039 0.07227,-0.0039 z m -7.867187,0.03711 h 2.246094 c 0.283833,0.09247 0.490234,0.356444 0.490234,0.671875 v 1.80664 c 0,0.392655 -0.316331,0.708985 -0.708984,0.708985 h -1.806641 c -0.392654,0 -0.708984,-0.31633 -0.708985,-0.708985 v -1.80664 c 0,-0.315431 0.204449,-0.579403 0.488282,-0.671875 z m -5.408203,0.115234 a 2.5746493,2.5746493 0 0 1 2.574218,2.576172 2.5746493,2.5746493 0 0 1 -2.574218,2.574219 2.5746493,2.5746493 0 0 1 -2.576172,-2.574219 2.5746493,2.5746493 0 0 1 2.576172,-2.576172 z m 5.628906,3.787109 h 1.806641 c 0.392653,0 0.708984,0.316333 0.708984,0.708985 v 1.808594 c 0,0.392648 -0.316331,0.707031 -0.708984,0.707031 h -1.806641 c -0.392654,0 -0.708984,-0.314383 -0.708985,-0.707031 v -1.808594 c 0,-0.392652 0.316331,-0.708984 0.708985,-0.708985 z m 3.822265,0 h 1.806641 c 0.392656,0 0.708984,0.316333 0.708985,0.708985 v 1.808594 c 0,0.392648 -0.316329,0.707031 -0.708985,0.707031 h -1.806641 c -0.392652,0 -0.708984,-0.314383 -0.708984,-0.707031 v -1.808594 c 0,-0.392652 0.316332,-0.708984 0.708984,-0.708985 z m 7.650391,0 h 1.804687 c 0.39265,0 0.70901,0.316333 0.70899,0.708985 v 1.808594 c 0,0.392648 -0.31634,0.707031 -0.70899,0.707031 h -1.804687 c -0.392654,0 -0.708984,-0.314383 -0.708984,-0.707031 v -1.808594 c 0,-0.368113 0.2765,-0.666957 0.634765,-0.703125 0.02394,-0.0022 0.04968,-0.0059 0.07422,-0.0059 z m 0,3.943358 h 1.804687 c 0.39265,0 0.70898,0.31634 0.70899,0.70899 v 1.80664 c 0,0.39267 -0.31634,0.70898 -0.70899,0.70898 h -1.804687 c -0.392654,0 -0.708984,-0.31631 -0.708984,-0.70898 v -1.80664 c 0,-0.39265 0.31633,-0.70899 0.708984,-0.70899 z m -19.121094,0.0898 h 1.804688 c 0.392654,0 0.708984,0.31633 0.708984,0.70898 v 1.80664 c 0,0.39265 -0.31633,0.70898 -0.708984,0.70898 h -1.804688 c -0.392652,0 -0.708984,-0.31633 -0.708984,-0.70898 v -1.80664 c 0,-0.39265 0.316332,-0.70898 0.708984,-0.70898 z m 11.470703,3.8496 h 1.806641 c 0.392656,0 0.708984,0.31634 0.708985,0.70899 v 1.80664 c 0,0.39265 -0.316329,0.70898 -0.708985,0.70898 h -1.806641 c -0.392652,0 -0.708984,-0.31633 -0.708984,-0.70898 v -1.80664 c 0,-0.39265 0.316332,-0.70898 0.708984,-0.70899 z m 7.650391,0 h 1.804687 c 0.39265,0 0.70898,0.31634 0.70899,0.70899 v 1.80664 c 0,0.39265 -0.31634,0.70898 -0.70899,0.70898 h -1.804687 c -0.392654,0 -0.708984,-0.31633 -0.708984,-0.70898 v -1.80664 c 0,-0.39265 0.31633,-0.70898 0.708984,-0.70899 z m -19.121094,0.0918 h 1.804688 c 0.392654,0 0.708984,0.31634 0.708984,0.70899 v 1.80664 c 0,0.39265 -0.31633,0.70703 -0.708984,0.70703 h -1.804688 c -0.392652,0 -0.708984,-0.31438 -0.708984,-0.70703 v -1.80664 c 0,-0.39265 0.316332,-0.70899 0.708984,-0.70899 z m 3.822266,0 h 1.808594 c 0.392653,0 0.707031,0.31634 0.707031,0.70899 v 1.80664 c 0,0.39265 -0.314378,0.70703 -0.707031,0.70703 h -1.808594 c -0.392654,0 -0.708984,-0.31438 -0.708984,-0.70703 v -1.80664 c 0,-0.39265 0.31633,-0.70899 0.708984,-0.70899 z m 7.648437,3.84961 h 1.806641 c 0.392656,0 0.708984,0.31634 0.708985,0.70899 v 1.80664 c 0,0.39267 -0.316329,0.70898 -0.708985,0.70898 h -1.806641 c -0.392652,0 -0.708984,-0.31631 -0.708984,-0.70898 v -1.80664 c 0,-0.39265 0.316332,-0.70899 0.708984,-0.70899 z m 3.824219,0 h 1.808594 c 0.392655,0 0.708984,0.31634 0.708984,0.70899 v 1.80664 c 0,0.39267 -0.316329,0.70898 -0.708984,0.70898 H 34.4375 c -0.392653,0 -0.708984,-0.31631 -0.708984,-0.70898 v -1.80664 c 0,-0.39265 0.316331,-0.70899 0.708984,-0.70899 z m -15.294922,0.0898 h 1.804688 c 0.392654,0 0.708984,0.31632 0.708984,0.70898 v 1.80664 c 0,0.39267 -0.31633,0.70898 -0.708984,0.70898 h -1.804688 c -0.392652,0 -0.708984,-0.31631 -0.708984,-0.70898 v -1.80664 c 0,-0.39266 0.316332,-0.70899 0.708984,-0.70898 z m 3.822266,0 h 1.808594 c 0.392653,0 0.707031,0.31632 0.707031,0.70898 v 1.80664 c 0,0.39267 -0.314378,0.70898 -0.707031,0.70898 h -1.808594 c -0.392654,0 -0.708984,-0.31631 -0.708984,-0.70898 v -1.80664 c 0,-0.39266 0.31633,-0.70899 0.708984,-0.70898 z m 7.648437,3.85156 h 1.806641 c 0.392656,0 0.708984,0.31633 0.708985,0.70898 v 1.80664 c 0,0.39265 -0.316329,0.70899 -0.708985,0.70899 h -1.806641 c -0.392652,0 -0.708984,-0.31634 -0.708984,-0.70899 v -1.80664 c 0,-0.39265 0.316332,-0.70898 0.708984,-0.70898 z m -9.451171,1.70898 a 2.7283979,2.7283979 0 0 1 2.726562,2.72656 2.7283979,2.7283979 0 0 1 -2.726562,2.72852 2.7283979,2.7283979 0 0 1 -2.728516,-2.72852 2.7283979,2.7283979 0 0 1 2.728516,-2.72656 z m 16.886718,0 a 2.7283979,2.7283979 0 0 1 2.728521,2.72656 2.7283979,2.7283979 0 0 1 -2.728521,2.72852 2.7283979,2.7283979 0 0 1 -2.726562,-2.72852 2.7283979,2.7283979 0 0 1 2.726562,-2.72656 z m -11.257812,2.23047 v 0.002 h 1.806641 c 0.392653,0 0.708984,0.31632 0.708984,0.70899 v 1.80664 c 0,0.39265 -0.316331,0.70703 -0.708984,0.70703 h -1.806641 c -0.04908,0 -0.09829,-0.005 -0.144531,-0.0137 -0.138667,-0.0282 -0.263293,-0.0972 -0.359375,-0.19336 -0.01602,-0.016 -0.03047,-0.0313 -0.04492,-0.0488 -0.100976,-0.12247 -0.160156,-0.28133 -0.160157,-0.45312 v -1.80664 c 0,-0.39266 0.316331,-0.70899 0.708985,-0.70899 z"
     inkscape:export-filename="../portfolio/public/build.svg"
     inkscape:export-xdpi="96"
     inkscape:export-ydpi="96" />
  <g
     inkscape:label="Layer 1"
     inkscape:groupmode="layer"
     id="layer1"
     transform="translate(-60.394531,-29.365234)">
    <path
       id="path105"
       style="fill:#ffffff;fill-opacity:0.7;stroke-width:0.437769;stroke-linecap:round"
       d="m 77.304688,42.390625 c -1.961533,0 -3.541016,1.57753 -3.541016,3.539063 v 2.335937 c 0,1.961532 1.579483,3.541016 3.541016,3.541016 h 25.390622 c 1.96153,0 3.54102,-1.579484 3.54102,-3.541016 v -2.335937 c 0,-1.961533 -1.57949,-3.539063 -3.54102,-3.539063 z m 5.80664,2.052734 h 0.482422 v 1.578125 c 0.100695,-0.173611 0.228082,-0.301432 0.380859,-0.384765 0.154514,-0.08507 0.337241,-0.128907 0.550782,-0.128907 0.354166,10e-7 0.642795,0.140626 0.863281,0.421876 0.222222,0.281249 0.332031,0.651042 0.332031,1.109374 0,0.458333 -0.109809,0.828126 -0.332031,1.109376 -0.220486,0.281249 -0.509115,0.421874 -0.863281,0.421874 -0.213541,10e-7 -0.396268,-0.04167 -0.550782,-0.125 -0.152777,-0.08507 -0.280164,-0.213108 -0.380859,-0.386718 v 0.4375 h -0.482422 z m 6.785156,0 H 90.375 v 0.607422 h -0.478516 z m 1.480469,0 h 0.480469 v 4.052735 h -0.480469 z m 3.402344,0 h 0.478515 v 4.052735 h -0.478515 v -0.4375 c -0.100695,0.17361 -0.228299,0.301649 -0.382813,0.386718 -0.152777,0.08333 -0.337457,0.125 -0.552734,0.125 -0.35243,0 -0.639106,-0.140625 -0.861328,-0.421874 -0.220486,-0.28125 -0.332031,-0.651043 -0.332031,-1.109376 0,-0.458332 0.111545,-0.828125 0.332031,-1.109374 0.222222,-0.28125 0.508898,-0.421876 0.861328,-0.421876 0.215277,0 0.399957,0.04384 0.552734,0.128907 0.154514,0.08333 0.282118,0.211154 0.382813,0.384765 z m -18.722656,0.953125 3.339843,1.210938 v 0.43164 L 76.056641,48.25 v -0.472656 l 2.683593,-0.951172 -2.683593,-0.955078 z m 10.410156,0.181641 h 0.478515 v 1.748047 c 0,0.276042 0.05447,0.484158 0.16211,0.623047 0.107639,0.137152 0.269098,0.205078 0.484375,0.205078 0.25868,0 0.462023,-0.08312 0.611328,-0.248047 0.151041,-0.164931 0.226562,-0.389106 0.226563,-0.673828 v -1.654297 h 0.478515 v 2.917969 h -0.478515 v -0.449219 c -0.11632,0.177083 -0.251737,0.309679 -0.40625,0.396484 -0.152778,0.08507 -0.330079,0.126954 -0.533204,0.126953 -0.335069,0 -0.59006,-0.104166 -0.763672,-0.3125 -0.17361,-0.208332 -0.259765,-0.51302 -0.259765,-0.914062 z m 3.429687,0 H 90.375 v 2.917969 h -0.478516 z m -5.488281,0.332031 c -0.253472,0 -0.451823,0.09939 -0.597656,0.300782 -0.144097,0.199652 -0.216797,0.475695 -0.216797,0.828124 0,0.352431 0.0727,0.630643 0.216797,0.832032 0.145833,0.199652 0.344184,0.298828 0.597656,0.298828 0.253472,0 0.453559,-0.09918 0.597656,-0.298828 0.145834,-0.201389 0.21875,-0.479601 0.21875,-0.832032 0,-0.352429 -0.07292,-0.628472 -0.21875,-0.828124 -0.144097,-0.20139 -0.344184,-0.300782 -0.597656,-0.300782 z m 9.552735,0 c -0.253472,0 -0.453777,0.09939 -0.59961,0.300782 -0.144097,0.199652 -0.214844,0.475695 -0.214844,0.828124 0,0.352431 0.07075,0.630643 0.214844,0.832032 0.145833,0.199652 0.346138,0.298828 0.59961,0.298828 0.253471,0 0.453776,-0.09918 0.599609,-0.298828 0.145833,-0.201389 0.21875,-0.479601 0.21875,-0.832032 0,-0.352429 -0.07292,-0.628472 -0.21875,-0.828124 -0.145833,-0.20139 -0.346138,-0.300782 -0.599609,-0.300782 z m -14.052735,3.470703 h 2.771485 v 0.373047 h -2.771485 z" />
  </g>
</svg>
