<?xml version="1.0" encoding="UTF-8" standalone="no"?>
<!-- Created with Inkscape (http://www.inkscape.org/) -->

<svg
   width="40.439182mm"
   height="18.069408mm"
   viewBox="0 0 40.439182 18.069408"
   version="1.1"
   id="svg1"
   xmlns:inkscape="http://www.inkscape.org/namespaces/inkscape"
   xmlns:sodipodi="http://sodipodi.sourceforge.net/DTD/sodipodi-0.dtd"
   xmlns="http://www.w3.org/2000/svg"
   xmlns:svg="http://www.w3.org/2000/svg">
  <sodipodi:namedview
     id="namedview1"
     pagecolor="#ffffff"
     bordercolor="#000000"
     borderopacity="0.25"
     inkscape:showpageshadow="2"
     inkscape:pageopacity="0.0"
     inkscape:pagecheckerboard="0"
     inkscape:deskcolor="#d1d1d1"
     inkscape:document-units="mm" />
  <defs
     id="defs1" />
  <g
     inkscape:label="Layer 1"
     inkscape:groupmode="layer"
     id="layer1"
     transform="translate(-148.43125,-113.50626)">
    <path
       style="fill:#ffffff;fill-opacity:1;stroke:none;stroke-width:1.03629;stroke-dasharray:none;stroke-opacity:1"
       d="m 174.08433,115.75446 c 2.47311,-2.09005 6.14859,-2.75518 8.30797,1.83812 4.83581,-1.06392 7.93892,0.19275 5.65168,5.638 2.77699,5.01608 -2.05258,6.40321 -5.50098,6.33135 -5.46743,2.6779 -5.73799,1.42182 -10.37378,1.83655 -4.97959,0.38471 -11.0752,0.11502 -15.98005,-0.53935 -3.86048,0.86074 -8.22337,-1.87479 -6.60315,-5.74064 -3.5016,-2.15619 1.83134,-8.00915 4.45756,-5.55966 0.0958,-5.62089 6.84203,-7.20842 10.16269,-2.61295 4.56779,-6.04869 9.4376,-2.56108 9.87806,-1.19142 z"
       id="path21"
       sodipodi:nodetypes="cccccccccc"
       inkscape:export-filename="cloud.svg"
       inkscape:export-xdpi="96"
       inkscape:export-ydpi="96" />
  </g>
</svg>
